<mxfile host="app.diagrams.net" modified="2024-03-26T07:40:04.005Z" agent="Mozilla/5.0 (Windows NT 10.0; Win64; x64) AppleWebKit/537.36 (KHTML, like Gecko) Chrome/123.0.0.0 Safari/537.36" etag="Fw9qipblDGMzb8CJgb3G" version="24.1.0" type="github">
  <diagram id="C5RBs43oDa-KdzZeNtuy" name="Page-1">
    <mxGraphModel dx="794" dy="454" grid="1" gridSize="10" guides="1" tooltips="1" connect="1" arrows="1" fold="1" page="1" pageScale="1" pageWidth="827" pageHeight="1169" math="0" shadow="0">
      <root>
        <mxCell id="WIyWlLk6GJQsqaUBKTNV-0" />
        <mxCell id="WIyWlLk6GJQsqaUBKTNV-1" parent="WIyWlLk6GJQsqaUBKTNV-0" />
        <mxCell id="WeE_2lh4flHVA_UMSR9k-24" style="edgeStyle=orthogonalEdgeStyle;rounded=0;orthogonalLoop=1;jettySize=auto;html=1;exitX=0.5;exitY=1;exitDx=0;exitDy=0;entryX=0.5;entryY=0;entryDx=0;entryDy=0;" edge="1" parent="WIyWlLk6GJQsqaUBKTNV-1" source="WeE_2lh4flHVA_UMSR9k-25" target="WeE_2lh4flHVA_UMSR9k-35">
          <mxGeometry relative="1" as="geometry" />
        </mxCell>
        <mxCell id="WeE_2lh4flHVA_UMSR9k-25" value="" style="ellipse;whiteSpace=wrap;html=1;aspect=fixed;fillColor=#000000;" vertex="1" parent="WIyWlLk6GJQsqaUBKTNV-1">
          <mxGeometry x="310" y="70" width="80" height="80" as="geometry" />
        </mxCell>
        <mxCell id="WeE_2lh4flHVA_UMSR9k-26" style="edgeStyle=orthogonalEdgeStyle;rounded=0;orthogonalLoop=1;jettySize=auto;html=1;exitX=0;exitY=0;exitDx=128;exitDy=55;exitPerimeter=0;entryX=0;entryY=0.5;entryDx=0;entryDy=0;" edge="1" parent="WIyWlLk6GJQsqaUBKTNV-1" source="WeE_2lh4flHVA_UMSR9k-27" target="WeE_2lh4flHVA_UMSR9k-25">
          <mxGeometry relative="1" as="geometry">
            <Array as="points">
              <mxPoint x="158" y="110" />
            </Array>
          </mxGeometry>
        </mxCell>
        <mxCell id="WeE_2lh4flHVA_UMSR9k-27" value="Admin Ready to Add&lt;br&gt;Assessment" style="shape=note;whiteSpace=wrap;html=1;backgroundOutline=1;darkOpacity=0.05;fillColor=#fff2cc;strokeColor=#d6b656;" vertex="1" parent="WIyWlLk6GJQsqaUBKTNV-1">
          <mxGeometry x="120" y="60" width="128" height="80" as="geometry" />
        </mxCell>
        <mxCell id="WeE_2lh4flHVA_UMSR9k-28" style="edgeStyle=orthogonalEdgeStyle;rounded=0;orthogonalLoop=1;jettySize=auto;html=1;exitX=0.5;exitY=1;exitDx=0;exitDy=0;entryX=0.5;entryY=0;entryDx=0;entryDy=0;entryPerimeter=0;" edge="1" parent="WIyWlLk6GJQsqaUBKTNV-1" source="WeE_2lh4flHVA_UMSR9k-29" target="WeE_2lh4flHVA_UMSR9k-32">
          <mxGeometry relative="1" as="geometry" />
        </mxCell>
        <mxCell id="WeE_2lh4flHVA_UMSR9k-29" value="Assessment Added" style="rounded=1;whiteSpace=wrap;html=1;fillColor=#dae8fc;strokeColor=#6c8ebf;" vertex="1" parent="WIyWlLk6GJQsqaUBKTNV-1">
          <mxGeometry x="292" y="530" width="120" height="60" as="geometry" />
        </mxCell>
        <mxCell id="WeE_2lh4flHVA_UMSR9k-30" style="edgeStyle=orthogonalEdgeStyle;rounded=0;orthogonalLoop=1;jettySize=auto;html=1;exitX=1;exitY=0.5;exitDx=0;exitDy=0;exitPerimeter=0;entryX=0;entryY=0.5;entryDx=0;entryDy=0;entryPerimeter=0;" edge="1" parent="WIyWlLk6GJQsqaUBKTNV-1" source="WeE_2lh4flHVA_UMSR9k-31" target="WeE_2lh4flHVA_UMSR9k-33">
          <mxGeometry relative="1" as="geometry" />
        </mxCell>
        <mxCell id="WeE_2lh4flHVA_UMSR9k-31" value="" style="verticalLabelPosition=bottom;verticalAlign=top;html=1;shape=mxgraph.flowchart.on-page_reference;" vertex="1" parent="WIyWlLk6GJQsqaUBKTNV-1">
          <mxGeometry x="322" y="630" width="60" height="60" as="geometry" />
        </mxCell>
        <mxCell id="WeE_2lh4flHVA_UMSR9k-32" value="" style="verticalLabelPosition=bottom;verticalAlign=top;html=1;shape=mxgraph.flowchart.on-page_reference;fillColor=#000000;strokeColor=none;" vertex="1" parent="WIyWlLk6GJQsqaUBKTNV-1">
          <mxGeometry x="327" y="635" width="50" height="50" as="geometry" />
        </mxCell>
        <mxCell id="WeE_2lh4flHVA_UMSR9k-33" value="Assessment List Shown" style="shape=note;whiteSpace=wrap;html=1;backgroundOutline=1;darkOpacity=0.05;fillColor=#fff2cc;strokeColor=#d6b656;" vertex="1" parent="WIyWlLk6GJQsqaUBKTNV-1">
          <mxGeometry x="480" y="620" width="150" height="80" as="geometry" />
        </mxCell>
        <mxCell id="WeE_2lh4flHVA_UMSR9k-34" style="edgeStyle=orthogonalEdgeStyle;rounded=0;orthogonalLoop=1;jettySize=auto;html=1;exitX=0.5;exitY=1;exitDx=0;exitDy=0;entryX=0.5;entryY=0;entryDx=0;entryDy=0;" edge="1" parent="WIyWlLk6GJQsqaUBKTNV-1" source="WeE_2lh4flHVA_UMSR9k-35" target="WeE_2lh4flHVA_UMSR9k-43">
          <mxGeometry relative="1" as="geometry" />
        </mxCell>
        <mxCell id="WeE_2lh4flHVA_UMSR9k-35" value="Enter Assessment Details" style="rounded=1;whiteSpace=wrap;html=1;fillColor=#dae8fc;strokeColor=#6c8ebf;" vertex="1" parent="WIyWlLk6GJQsqaUBKTNV-1">
          <mxGeometry x="290" y="190" width="120" height="60" as="geometry" />
        </mxCell>
        <mxCell id="WeE_2lh4flHVA_UMSR9k-36" style="edgeStyle=orthogonalEdgeStyle;rounded=0;orthogonalLoop=1;jettySize=auto;html=1;exitX=0.5;exitY=1;exitDx=0;exitDy=0;entryX=0.5;entryY=0;entryDx=0;entryDy=0;" edge="1" parent="WIyWlLk6GJQsqaUBKTNV-1" source="WeE_2lh4flHVA_UMSR9k-38" target="WeE_2lh4flHVA_UMSR9k-29">
          <mxGeometry relative="1" as="geometry" />
        </mxCell>
        <mxCell id="WeE_2lh4flHVA_UMSR9k-37" style="edgeStyle=orthogonalEdgeStyle;rounded=0;orthogonalLoop=1;jettySize=auto;html=1;exitX=1;exitY=0.5;exitDx=0;exitDy=0;entryX=0;entryY=0.5;entryDx=0;entryDy=0;" edge="1" parent="WIyWlLk6GJQsqaUBKTNV-1" source="WeE_2lh4flHVA_UMSR9k-38" target="WeE_2lh4flHVA_UMSR9k-40">
          <mxGeometry relative="1" as="geometry" />
        </mxCell>
        <mxCell id="WeE_2lh4flHVA_UMSR9k-38" value="All Valid Details" style="rhombus;whiteSpace=wrap;html=1;fillColor=#d5e8d4;strokeColor=#82b366;" vertex="1" parent="WIyWlLk6GJQsqaUBKTNV-1">
          <mxGeometry x="310" y="424" width="80" height="80" as="geometry" />
        </mxCell>
        <mxCell id="WeE_2lh4flHVA_UMSR9k-39" style="edgeStyle=orthogonalEdgeStyle;rounded=0;orthogonalLoop=1;jettySize=auto;html=1;exitX=0.5;exitY=0;exitDx=0;exitDy=0;entryX=1;entryY=0.25;entryDx=0;entryDy=0;" edge="1" parent="WIyWlLk6GJQsqaUBKTNV-1" source="WeE_2lh4flHVA_UMSR9k-40" target="WeE_2lh4flHVA_UMSR9k-35">
          <mxGeometry relative="1" as="geometry" />
        </mxCell>
        <mxCell id="WeE_2lh4flHVA_UMSR9k-40" value="Error Message" style="rounded=1;whiteSpace=wrap;html=1;" vertex="1" parent="WIyWlLk6GJQsqaUBKTNV-1">
          <mxGeometry x="450" y="434" width="120" height="60" as="geometry" />
        </mxCell>
        <mxCell id="WeE_2lh4flHVA_UMSR9k-41" value="Yes" style="text;html=1;align=center;verticalAlign=middle;resizable=0;points=[];autosize=1;strokeColor=none;fillColor=none;" vertex="1" parent="WIyWlLk6GJQsqaUBKTNV-1">
          <mxGeometry x="272" y="485" width="40" height="30" as="geometry" />
        </mxCell>
        <mxCell id="WeE_2lh4flHVA_UMSR9k-42" style="edgeStyle=orthogonalEdgeStyle;rounded=0;orthogonalLoop=1;jettySize=auto;html=1;exitX=0.5;exitY=1;exitDx=0;exitDy=0;" edge="1" parent="WIyWlLk6GJQsqaUBKTNV-1" source="WeE_2lh4flHVA_UMSR9k-43" target="WeE_2lh4flHVA_UMSR9k-38">
          <mxGeometry relative="1" as="geometry" />
        </mxCell>
        <mxCell id="WeE_2lh4flHVA_UMSR9k-43" value="Add Assessment Components" style="rounded=1;whiteSpace=wrap;html=1;fillColor=#dae8fc;strokeColor=#6c8ebf;" vertex="1" parent="WIyWlLk6GJQsqaUBKTNV-1">
          <mxGeometry x="290" y="300" width="120" height="60" as="geometry" />
        </mxCell>
      </root>
    </mxGraphModel>
  </diagram>
</mxfile>
